<?xml version="1.0" standalone="no"?><!DOCTYPE svg PUBLIC "-//W3C//DTD SVG 1.1//EN" "http://www.w3.org/Graphics/SVG/1.1/DTD/svg11.dtd"><svg t="1691042530401" class="icon" viewBox="0 0 1024 1024" version="1.1" xmlns="http://www.w3.org/2000/svg" p-id="2888" xmlns:xlink="http://www.w3.org/1999/xlink" width="200" height="200"><path d="M924.16 683.71l-0.18 61.97-410.74 238.69 0.18-61.96 410.74-238.7z" fill="#548FEF" p-id="2889"></path><path d="M513.42 922.41l-0.18 61.96-413.4-238.68 0.17-61.96 413.41 238.68z" fill="#9FC8FF" opacity=".6" p-id="2890"></path><path d="M924.16 683.71l-410.74 238.7-413.41-238.68 410.74-238.7 413.41 238.68z" fill="#366FD9" p-id="2891"></path><path d="M580.8 657.1c13 7.51 6.78 17.53-4.63 24.16-12.8 7.44-29.82 10-43.47 2.09-0.54-0.31-1.08-0.64-1.61-1l13.06-7.59 0.49 0.29c6.53 3.77 13.22 3.63 20-0.34 4.76-2.76 7.12-6.63 2.16-9.5-6.38-3.68-12.46-1.87-18.06 1.38-1.22 0.71-2.36 1.49-3.51 2.26l-9.76-5.64c1.14-0.77 2.64-1.34 3.78-2.1 4.19-2.44 8.2-6 3.25-8.88-3.73-2.16-9.4-1.24-14 1.43-5.61 3.26-6 6.79-0.88 9.77l0.19 0.11-13.06 7.59c-12.67-7.59-9.92-16.95 2.25-24 9.93-5.77 25.58-10 37.32-3.19 5 2.91 7.63 7.54 3.27 11.12 8.53-2.73 16.35-1.92 23.21 2.04zM516.46 715.53l-45.92 26.68c-7.28-4.29-10.94-10.11-10.24-16.28 0.62-5.34 3.23-10.22 4.87-14.5 1.46-4.2 1.77-7.64-2.12-9.88a14.48 14.48 0 0 0-14.59 0.14c-7.39 4.29-4.16 8.63 2.13 12.27l-13.06 7.59c-0.69-0.35-1.34-0.7-2-1.06-13.26-7.66-13.08-18 0.49-25.87 11.33-6.59 27.4-9 39.72-1.91 11.2 6.44 7.26 13.29 4.2 21.29-1.8 4.1-2.45 6.2-2.59 10.5l27.2-15.81zM425.23 768.11l-14.79 8.6-35.39-20.44-13.73 8-10.34-6c8.4-4.58 13.37-11.13 5-16.71l11.59-6.74zM660.37 616.62l12.82 7.38-14 8.12-12.81-7.4-25.06 14.56-13.12-7.58-6-33.18 13.39-7.78 32.92 19 7.47-4.34 11.91 6.87z m-40.07 9.5l14.6-8.5-18.6-10.74-0.16 0.1 4.16 19.14" fill="#FFFFFF" p-id="2892"></path><path d="M924.16 481.01l-0.18 61.96-410.74 238.7 0.18-61.97 410.74-238.69z" fill="#A1C2F9" opacity=".9" p-id="2893"></path><path d="M513.42 719.7l-0.18 61.97-413.4-238.68 0.17-61.97L513.42 719.7z" fill="#A1C2F9" opacity=".6" p-id="2894"></path><path d="M924.16 481.01L513.42 719.7 100.01 481.02l410.74-238.69 413.41 238.68z" fill="#A1C2F9" opacity=".8" p-id="2895"></path><path d="M924.16 278.32l-0.18 61.96-410.72 238.69 0.18-61.97 410.72-238.68z" fill="#548FEF" p-id="2896"></path><path d="M513.44 517l-0.18 61.97L99.84 340.28l0.18-61.97L513.44 517z" fill="#9FC8FF" p-id="2897"></path><path d="M924.16 278.32L513.44 517 100.02 278.31 510.74 39.63l413.42 238.69z" fill="#366FD9" p-id="2898"></path><path d="M494.23 288.68c11.93 6.89 12 18 0.14 24.92s-31.08 6.88-43 0-12-18-0.14-24.91 31.1-6.88 43-0.01zM415.66 334.35c11.92 6.88 12 18 0.14 24.92s-31.08 6.87-43 0-12-18-0.14-24.9 31.09-6.9 43-0.02zM572.81 243c11.92 6.88 12 18 0.14 24.92s-31.08 6.87-43 0-12-18-0.14-24.9 31.09-6.87 43-0.02zM651.37 197.37c11.92 6.88 12 18 0.16 24.91s-31.09 6.87-43 0-12-18-0.14-24.9 31.07-6.89 42.98-0.01z" fill="#FFFFFF" p-id="2899"></path></svg>