<?xml version="1.0" standalone="no"?><!DOCTYPE svg PUBLIC "-//W3C//DTD SVG 1.1//EN" "http://www.w3.org/Graphics/SVG/1.1/DTD/svg11.dtd"><svg t="1690901394458" class="icon" viewBox="0 0 1024 1024" version="1.1" xmlns="http://www.w3.org/2000/svg" p-id="1908" xmlns:xlink="http://www.w3.org/1999/xlink" width="200" height="200"><path d="M0.52792889 470.05696v297.67907555h809.73368889c117.67352889-0.58254222 212.62791111-96.11946667 212.62791111-213.79299555V256.26396445h-809.73368889c-117.67352889 0.58254222-212.62791111 96.11946667-212.62791111 213.79299555z m774.78115556-122.91640889l58.83676444 322.14584889H738.60892445l-11.06830223-73.98286222h-96.11946667l-36.70016 73.98286222H498.60152889l174.76266666-322.14584889h101.9448889z m-534.19121778 41.94304c34.36999111-31.45728 78.6432-48.35100445 125.24657778-47.76846222 3.49525333 0 6.99050667 0 10.48576 0.58254222 3.49525333 0 6.99050667-0.58254222 11.06830222-0.58254222 39.61287111-2.91271111 78.6432 14.56355555 103.10997333 46.02083556 23.30168889 34.36999111 31.45728 77.47811555 21.55406222 118.2560711-6.99050667 47.18592-30.29219555 90.29404445-65.24472889 122.33386667-33.20490667 30.87473778-77.47811555 47.76846222-122.91640888 46.60337778-3.49525333 0-6.99050667 0-10.48576-0.58254222-3.49525333 0-6.99050667 0.58254222-10.48576 0.58254222-40.19541333 2.91271111-79.22574222-14.56355555-104.27505778-45.43829333-24.46677333-33.78744889-32.62236445-76.31303111-22.71914667-117.09098667 6.40796445-47.18592 29.70965333-90.87658667 64.66218667-122.91640889z" fill="#b61b1b" p-id="1909"></path><path d="M705.40401778 443.84256l-50.09863111 98.44963555h64.66218666zM306.36259555 431.02663111c15.14609778-16.31118222 35.53507555-26.79694222 58.25422223-29.12711111 19.22389333 1.16508445 36.11761778 11.65084445 46.02083555 27.96202667 11.65084445 25.04931555 14.56355555 53.01134222 7.57304889 79.80828444-4.07779555 28.54456889-16.31118222 55.34151111-36.11761777 76.89557334-15.14609778 15.72864-34.95253333 25.63185778-56.50659556 27.37948444-19.22389333-1.16508445-37.28270222-12.23338667-46.60337778-28.54456889-12.23338667-23.88423111-15.14609778-50.68117333-9.32067556-76.89557333 4.07779555-29.12711111 16.89372445-55.92405333 36.70016-77.47811556z" fill="#b61b1b" p-id="1910"></path></svg>