<?xml version="1.0" standalone="no"?><!DOCTYPE svg PUBLIC "-//W3C//DTD SVG 1.1//EN" "http://www.w3.org/Graphics/SVG/1.1/DTD/svg11.dtd"><svg t="1690900671902" class="icon" viewBox="0 0 1024 1024" version="1.1" xmlns="http://www.w3.org/2000/svg" p-id="1170" xmlns:xlink="http://www.w3.org/1999/xlink" width="200" height="200"><path d="M870.399976 1024H153.600024a51.199997 51.199997 0 0 1-51.199996-51.199997V51.200066A51.199997 51.199997 0 0 1 153.600024 0.00007h569.684962a42.666997 42.666997 0 0 1 30.037998 12.287999l155.988989 155.989989a42.666997 42.666997 0 0 1 12.287999 30.036998V972.800003a51.199997 51.199997 0 0 1-51.199996 51.199997zM153.600024 34.133068A17.066999 17.066999 0 0 0 136.533026 51.200066v921.599937a17.066999 17.066999 0 0 0 17.066998 17.066999h716.799952a17.066999 17.066999 0 0 0 17.066998-17.066999V198.315056a7.168 7.168 0 0 0-2.39-5.802999L729.087985 36.522068a7.168 7.168 0 0 0-5.802999-2.389z" fill="#4D4D4D" p-id="1171"></path><path d="M904.532973 204.800056H733.866985a17.066999 17.066999 0 0 1-17.066999-17.066999V17.067069h34.132998v153.599989h153.599989z" fill="#4D4D4D" p-id="1172"></path><path d="M204.800021 170.667058h443.73297V204.800056H204.800021z m0 136.532991h614.399958v34.132998H204.800021z m0 136.532991h614.399958v34.133997H204.800021z m0 136.53399h614.399958V614.400028H204.800021z m0 273.065982h614.399958v34.133997H204.800021z m0-136.532991h614.399958v34.132998H204.800021z" fill="#B3B3B3" p-id="1173"></path><path d="M68.26703 460.800038h887.46594q17.066999 0 17.066999 17.066999v273.065982Q972.799969 768.000017 955.73297 768.000017H68.26703Q51.200031 768.000017 51.200031 750.933019V477.867037q0-17.066999 17.066999-17.066999z" fill="#4295E5" p-id="1174"></path><path d="M955.73297 477.867037v273.065982H68.26703V477.867037h887.46594m0-34.133997H68.26703a34.132998 34.132998 0 0 0-34.133997 34.133997v273.065982a34.132998 34.132998 0 0 0 34.133997 34.133997h887.46594a34.132998 34.132998 0 0 0 34.133997-34.133997V477.867037a34.132998 34.132998 0 0 0-34.133997-34.133997z" fill="#267ACB" p-id="1175"></path><path d="M308.907014 614.400028l-55.637996-84.309994h31.061998l40.959997 63.488995h2.048l41.641997-63.487995h29.354998L341.333012 614.400028l55.978996 83.967994h-30.719998l-41.300997-62.122995L281.600016 698.710022h-29.012998z m278.868981 84.309994V576.852031l-49.492997 117.759992h-19.797998l-50.857997-117.759992V698.710022H443.050005V530.091034h30.719998l53.588996 129.023991h2.048l50.858996-129.023991h30.377998v168.617988z m183.636987 0h-105.129993V530.090034h26.281999v144.38499h78.847994z" fill="#FFFFFF" p-id="1176"></path></svg>