<?xml version="1.0" standalone="no"?><!DOCTYPE svg PUBLIC "-//W3C//DTD SVG 1.1//EN" "http://www.w3.org/Graphics/SVG/1.1/DTD/svg11.dtd"><svg t="1690901344441" class="icon" viewBox="0 0 4388 1024" version="1.1" xmlns="http://www.w3.org/2000/svg" p-id="1756" xmlns:xlink="http://www.w3.org/1999/xlink" width="857.03125" height="200"><path d="M438.857143 0h3949.714286v585.142857c0 242.358857-196.498286 438.857143-438.857143 438.857143H0V438.857143C0 196.498286 196.498286 0 438.857143 0z" fill="#000000" fill-opacity=".25" p-id="1757"></path><path d="M1987.072 756.150857c-5.485714-27.428571-12.580571-54.491429-21.284571-81.042286 19.894857 1.353143 39.826286 2.157714 59.757714 2.340572 27.977143 0 45.092571-6.692571 51.309714-20.114286 6.217143-13.385143 9.618286-112.384 10.24-296.96H2016.914286c-3.145143 181.394286-55.296 317.293714-156.452572 407.625143a842.020571 842.020571 0 0 0-65.097143-63.926857c91.501714-73.142857 138.934857-187.721143 142.262858-343.734857h-97.28V283.465143h98.194285V182.857143h80.457143c0 35.474286-0.182857 69.010286-0.585143 100.571428h149.686857l-2.377142 137.837715c24.868571 19.931429 47.323429 38.436571 67.437714 55.588571l-18.322286 96.438857a2831.250286 2831.250286 0 0 0-50.614857-55.881143l-2.669714 133.083429c-0.768 31.744-8.155429 56.100571-22.162286 72.923429-14.006857 16.859429-32.036571 26.441143-54.125714 28.708571-22.089143 2.267429-54.857143 3.584-98.230857 3.986286zM1645.714286 339.017143h52.077714V185.782857h74.532571v153.234286h49.115429v70.985143h-49.115429v352.621714h-74.532571v-352.621714H1645.714286V339.053714z m144.969143 210.029714a1081.051429 1081.051429 0 0 0 53.796571-152.027428l65.097143 15.945142a1912.246857 1912.246857 0 0 1-52.041143 160.914286 694.857143 694.857143 0 0 0-66.852571-24.832z m485.705142-344.868571h533.650286v453.12c0 34.340571-7.643429 60.050286-22.930286 77.092571-15.286857 17.042286-36.388571 25.819429-63.305142 26.331429-26.916571 0.475429-59.501714 0.731429-97.792 0.731428a1076.48 1076.48 0 0 0-18.285715-82.285714c24.612571 2.56 47.177143 3.876571 67.693715 3.876571 15.762286 0 26.916571-0.841143 33.426285-2.523428a26.806857 26.806857 0 0 0 15.835429-11.373714c4.022857-5.924571 6.070857-13.787429 6.070857-23.661715V278.125714H2355.675429V760.32h-79.286858V204.178286z m128.365715 235.410285h274.505143v207.067429h-197.595429v37.888h-76.909714V439.588571z m296.996571-46.08h-317.110857V325.997714h317.110857v67.474286zM3043.693714 182.857143h83.382857l-3.218285 93.513143h201.472l-2.669715 140.8 47.616-22.491429c28.781714 50.834286 54.857143 103.168 78.116572 156.781714l-69.229714 34.889143a3144.667429 3144.667429 0 0 0-57.417143-123.062857c-2.742857 103.936-5.339429 166.582857-7.826286 187.830857a125.257143 125.257143 0 0 1-22.784 58.88 94.171429 94.171429 0 0 1-49.517714 36.571429c-20.333714 6.363429-64.585143 9.545143-132.827429 9.545143a1664.694857 1664.694857 0 0 0-20.699428-87.552c37.449143 1.974857 65.28 2.962286 83.382857 2.962285 38.473143 0 59.136-18.432 62.025143-55.296 2.852571-36.900571 5.449143-124.708571 7.826285-263.570285H3120.274286a1875.2 1875.2 0 0 1-10.057143 126.902857 448.475429 448.475429 0 0 1-25.124572 102.473143c-12.653714 34.011429-31.744 66.816-57.417142 98.377143-25.6 31.561143-56.978286 59.977143-94.061715 85.211428a1083.574857 1083.574857 0 0 0-62.098285-72.192c41.398857-24.868571 74.605714-53.686857 99.547428-86.528 24.941714-32.804571 41.179429-67.766857 48.786286-104.850286 7.606857-37.083429 13.312-86.857143 17.005714-149.394285h-148.772571V276.333714h152.649143L3043.693714 182.857143v0.036571z m-126.573714 212.406857l72.777143 22.491429c-21.723429 66.669714-43.227429 124.013714-64.512 172.141714-28.013714-13.787429-52.077714-23.844571-72.192-30.171429 23.259429-46.921143 44.580571-101.778286 63.926857-164.461714z m960.768-204.690286c44.544 90.294857 101.741714 164.827429 171.556571 223.634286a1809.773714 1809.773714 0 0 0-67.437714 70.363429c-69.778286-64.658286-130.340571-150.454857-181.650286-257.316572l77.531429-36.717714z m-249.051429 5.888l81.042286 34.340572c-43.373714 98.194286-105.691429 184.758857-186.989714 259.693714-13.385143-17.371429-33.097143-40.228571-59.136-68.608a645.595429 645.595429 0 0 0 165.083428-225.426286z m227.145143 293.449143A2752.036571 2752.036571 0 0 1 4022.857143 712.996571l-77.531429 53.833143a1777.700571 1777.700571 0 0 0-31.049143-50.578285l-308.260571 15.981714a471.771429 471.771429 0 0 0-61.184 10.934857l-36.681143-79.872c26.587429-15.36 62.061714-55.588571 106.313143-120.685714 44.251429-65.097143 77.860571-119.917714 100.754286-164.461715l87.552 39.021715c-67.072 103.716571-121.892571 179.456-164.498286 227.181714 77.312-1.755429 151.552-4.242286 222.72-7.387429a2815.670857 2815.670857 0 0 0-75.410286-102.656l70.4-44.361142z m-1253.632 90.514286v-74.532572h-120.685714v74.532572h120.685714z" fill="#FFFFFE" p-id="1758"></path><path d="M1446.765714 191.378286v367.981714a263.314286 263.314286 0 0 1-262.582857 263.972571H182.857143V455.314286a263.314286 263.314286 0 0 1 262.582857-263.972572h1001.325714zM669.988571 296.082286l-8.704 0.365714c-4.498286 0-8.923429 0.292571-13.348571 0.512-4.278857-0.219429-8.521143-0.548571-12.982857-0.548571a222.976 222.976 0 0 0-154.733714 58.770285 259.437714 259.437714 0 0 0-81.627429 152.356572 176.237714 176.237714 0 0 0 27.977143 144.64 153.417143 153.417143 0 0 0 129.206857 56.246857c4.388571 0 8.777143-0.292571 13.165714-0.548572 4.388571 0.256 8.667429 0.548571 13.165715 0.548572a219.648 219.648 0 0 0 144.091428-50.980572l7.972572-6.948571 7.936-7.570286a256.621714 256.621714 0 0 0 72.704-143.469714 182.857143 182.857143 0 0 0-26.331429-146.102857 148.224 148.224 0 0 0-127.195429-56.941714z m470.381715 7.131428h-126.098286L798.354286 701.549714h118.491428l45.421715-91.318857h118.491428l13.641143 91.318857h118.710857L1140.370286 303.177143zM632.32 371.309714a70.107429 70.107429 0 0 1 56.758857 34.852572c14.555429 30.646857 17.956571 65.426286 9.691429 98.340571a177.737143 177.737143 0 0 1-44.544 95.012572 110.592 110.592 0 0 1-69.997715 34.121142 72.082286 72.082286 0 0 1-57.929142-35.620571 137.654857 137.654857 0 0 1-11.300572-95.012571 181.028571 181.028571 0 0 1 45.604572-95.890286 112.786286 112.786286 0 0 1 71.716571-35.803429z m421.449143 51.419429l18.432 121.965714h-79.835429l61.403429-121.965714z" fill="#F7E700" p-id="1759"></path></svg>