<?xml version="1.0" standalone="no"?><!DOCTYPE svg PUBLIC "-//W3C//DTD SVG 1.1//EN" "http://www.w3.org/Graphics/SVG/1.1/DTD/svg11.dtd"><svg t="1690900744379" class="icon" viewBox="0 0 1024 1024" version="1.1" xmlns="http://www.w3.org/2000/svg" p-id="1321" xmlns:xlink="http://www.w3.org/1999/xlink" width="200" height="200"><path d="M901.851497 926.485126a48.255938 48.255938 0 0 1-14.274981 34.441955 48.844937 48.844937 0 0 1-34.456956 14.279982h-682.69912a48.219938 48.219938 0 0 1-34.457955-14.279982 48.844937 48.844937 0 0 1-14.279982-34.441955V48.847257a48.316938 48.316938 0 0 1 14.279982-34.467956A48.844937 48.844937 0 0 1 170.42044 0.00232h418.79946a48.741937 48.741937 0 0 1 34.661956 14.131982l263.85866 263.90966a48.844937 48.844937 0 0 1 14.109981 34.666955z" fill="#EBECF0" p-id="1322"></path><path d="M901.851497 926.485126v48.767937a48.316938 48.316938 0 0 1-14.274981 34.466955A48.844937 48.844937 0 0 1 853.11956 1024h-682.69912a48.844937 48.844937 0 0 1-48.788937-48.844937v-48.721937a48.204938 48.204938 0 0 0 14.279982 34.442955 48.844937 48.844937 0 0 0 34.456955 14.279982h682.64912a48.844937 48.844937 0 0 0 48.771938-48.783937z" fill="#C1C7D0" p-id="1323"></path><path d="M24.167629 536.423629h975.152743v243.849685a48.921937 48.921937 0 0 1-48.721937 48.844937H73.012566a48.342938 48.342938 0 0 1-34.467956-14.274981 48.844937 48.844937 0 0 1-14.376981-34.569956z" fill="#FF6B08" p-id="1324"></path><path d="M121.734503 536.413629v-97.556875l-97.566874 97.556875z m780.116994 0l0.925999-97.556875 97.039875 97.556875z" fill="#FF4B08" p-id="1325"></path><path d="M901.851497 312.628917v6.859991H638.017838a48.844937 48.844937 0 0 1-48.843937-48.843937V0.00232a48.731937 48.731937 0 0 1 34.661955 14.115982l264.267659 263.75066a49.459936 49.459936 0 0 1 13.701983 34.754955z" fill="#C1C7D0" p-id="1326"></path><path d="M310.30826 722.704388l-29.516962 51.163934h-66.902914l63.949918-94.453878-58.045925-86.578888h66.902913l25.579967 46.23894 26.566966-46.23394h66.902914l-61.98792 86.579888 61.98792 94.447878h-66.902914z m166.271786 51.163934h-54.107931V592.835556h71.812908l32.469958 113.146854 31.478959-113.146854h71.827908v181.032766h-53.129932v-55.095929l0.982999-28.533963 2.948996-32.465958h-0.982999l-32.465958 116.09585h-41.322946l-33.454957-116.09585 1.971997 26.562966 1.965998 28.527963z m328.610576 0H663.515805V592.835556h60.010922v138.725821h81.663895z" fill="#FFFFFF" p-id="1327"></path></svg>