<?xml version="1.0" standalone="no"?><!DOCTYPE svg PUBLIC "-//W3C//DTD SVG 1.1//EN" "http://www.w3.org/Graphics/SVG/1.1/DTD/svg11.dtd"><svg t="1691042625551" class="icon" viewBox="0 0 1024 1024" version="1.1" xmlns="http://www.w3.org/2000/svg" p-id="2103" xmlns:xlink="http://www.w3.org/1999/xlink" width="200" height="200"><path d="M682.665529 315.732807a1262.077897 1262.077897 0 0 1-230.826282 400.639332 85.333191 85.333191 0 0 1 24.319959 59.733234 642.985595 642.985595 0 0 0 201.386331 37.119938 85.333191 85.333191 0 0 1 82.34653-63.999893h9.813317a554.665742 554.665742 0 0 0 20.0533-146.346423 560.2124 560.2124 0 0 0-81.493198-290.559516 81.919863 81.919863 0 0 1-23.466627 3.413328zM770.13205 228.692952a697.598837 697.598837 0 0 1 208.212986 72.533213 511.999147 511.999147 0 0 0-233.812944-244.906259c-4.26666 34.133276-10.239983 67.413221-17.066638 100.693166a85.333191 85.333191 0 0 1 42.666596 71.67988zM38.826602 519.252468a85.333191 85.333191 0 0 1 26.453289-61.439898 682.665529 682.665529 0 0 1-40.1066-104.106493A511.999147 511.999147 0 0 0 0 511.999147a523.092462 523.092462 0 0 0 14.506642 119.466467 725.332124 725.332124 0 0 1 36.266607-69.973216 85.333191 85.333191 0 0 1-11.946647-42.23993z" fill="#13227a" p-id="2104"></path><path d="M1002.23833 363.94606a653.652244 653.652244 0 0 0-242.346263-93.439844 77.653204 77.653204 0 0 1-14.506643 20.479966 605.012325 605.012325 0 0 1 87.466521 314.026143A597.332338 597.332338 0 0 1 810.665316 767.99872a80.639866 80.639866 0 0 1 26.453289 31.999947 699.305501 699.305501 0 0 0 125.439791-42.666596 514.132476 514.132476 0 0 0 40.1066-392.532679zM684.798859 145.066425c7.253321-35.83994 13.226645-71.679881 17.493304-107.946487A511.999147 511.999147 0 0 0 511.999147 0a516.265806 516.265806 0 0 0-127.999787 17.066638 610.985648 610.985648 0 0 1 255.999573 142.506429 85.333191 85.333191 0 0 1 44.799926-14.506642zM305.91949 776.105373a87.893187 87.893187 0 0 1 6.826655-33.70661A698.025503 698.025503 0 0 1 153.599744 597.332338a85.333191 85.333191 0 0 1-29.439951 5.546657 85.333191 85.333191 0 0 1-42.666595-11.946647 664.745559 664.745559 0 0 0-46.933256 103.253162 511.999147 511.999147 0 0 0 147.199755 206.932988 1234.344609 1234.344609 0 0 0 127.999787-102.399829 90.453183 90.453183 0 0 1-3.839994-22.613296zM760.318733 921.171798a94.293176 94.293176 0 0 1-15.786641 0 631.038948 631.038948 0 0 1-49.49325 70.399883 511.999147 511.999147 0 0 0 226.132956-170.666383 738.558769 738.558769 0 0 1-75.94654 21.333298 85.333191 85.333191 0 0 1-84.906525 78.933202zM678.398869 857.598571a692.05218 692.05218 0 0 1-213.332977-38.826602 85.333191 85.333191 0 0 1-132.693113 19.199968 1267.197888 1267.197888 0 0 1-115.199808 92.159846A508.585819 508.585819 0 0 0 511.999147 1023.998293a511.999147 511.999147 0 0 0 103.253161-10.239983 573.012378 573.012378 0 0 0 90.453182-112.639812 81.919863 81.919863 0 0 1-27.306621-43.519927zM341.332764 709.118818a85.333191 85.333191 0 0 1 52.053247-18.346636 85.333191 85.333191 0 0 1 23.466628 3.839994 1217.277971 1217.277971 0 0 0 227.412954-390.39935 88.746519 88.746519 0 0 1-36.266606-42.666595 649.81225 649.81225 0 0 0-422.825962 194.986341 85.333191 85.333191 0 0 1 26.453289 61.866564 85.333191 85.333191 0 0 1-20.906632 55.89324A663.892227 663.892227 0 0 0 341.332764 709.118818z" fill="#13227a" p-id="2105"></path><path d="M124.159793 433.919277a103.253161 103.253161 0 0 1 20.479966 2.559996 690.772182 690.772182 0 0 1 456.105906-215.892974 85.333191 85.333191 0 0 1 8.959985-29.439951A570.025717 570.025717 0 0 0 304.639492 42.666596a511.999147 511.999147 0 0 0-252.159579 243.199594 645.972257 645.972257 0 0 0 49.49325 150.186417 77.653204 77.653204 0 0 1 22.18663-2.13333z" fill="#13227a" p-id="2106"></path></svg>