<?xml version="1.0" standalone="no"?><!DOCTYPE svg PUBLIC "-//W3C//DTD SVG 1.1//EN" "http://www.w3.org/Graphics/SVG/1.1/DTD/svg11.dtd"><svg t="1691041577467" class="icon" viewBox="0 0 1024 1024" version="1.1" xmlns="http://www.w3.org/2000/svg" p-id="2394" xmlns:xlink="http://www.w3.org/1999/xlink" width="200" height="200"><path d="M525.28 164.04l1.91 339.48-293.98 168.63-0.01-338.37 292.08-169.74z" fill="#548FEF" p-id="2395"></path><path d="M819.26 671.59L527.19 841.32 233.21 671.59l292.07-169.73 293.98 169.73z" fill="#366FD9" p-id="2396"></path><path d="M819.27 333.77v339.48L527.19 841.32l0.01-337.81 292.07-169.74z" fill="#548FEF" opacity=".8" p-id="2397"></path><path d="M527.19 503.52v337.8L233.21 672.15l-0.01-338.37 293.99 169.74z" fill="#D2E3FE" opacity=".6" p-id="2398"></path><path d="M202.08 157.77l-96.66 56.17-97.3-56.17 96.66-56.17 97.3 56.17z" fill="#A1C2F9" opacity=".8" p-id="2399"></path><path d="M202.08 157.77v112.35l-96.66 55.63v-111.8l96.66-56.18z" fill="#A1C2F9" p-id="2400"></path><path d="M105.42 213.95v111.8l-97.3-55.99V157.78l97.3 56.17z" fill="#A1C2F9" opacity=".6" p-id="2401"></path><path d="M196.53 750.61l-6.04-9.16 15.25-10.07 6.04 9.16-15.25 10.07zM226.07 731.11L220 722l28.57-18.86 6 9.16z m42.85-28.29l-6-9.16 28.57-18.85 6 9.16z m42.86-28.28l-6-9.16 28.58-18.86 6 9.16zM348.598 637.079l15.273-10.063 6.035 9.16-15.273 10.063zM163.816 245.01l5.904-9.245 15.407 9.838-5.904 9.246zM272.71 314.49l-31.16-19.89 5.89-9.25 31.16 19.89zM226 284.66l-31.16-19.89 5.89-9.25 31.16 19.89zM303.71 334.26l-15.41-9.84 5.89-9.25 15.41 9.84-5.89 9.25zM131.105 266.753l5.888-9.256 15.424 9.811-5.888 9.256zM238.24 334.92l-30.57-19.45 5.9-9.25 30.57 19.45z m-45.85-29.19l-30.57-19.45 5.89-9.25 30.57 19.45zM253.54 344.626l5.897-9.251 15.407 9.82-5.896 9.25zM225.015 767.382l15.273-10.063 6.035 9.16-15.273 10.064zM261 756.78l-6-9.16 29.37-19.39 6 9.17z m44.06-29.08l-6-9.16 29.38-19.39 6 9.16z m44.05-29.08l-6-9.16 29.37-19.4 6 9.17zM393.17 669.54l-6.03-9.16 15.25-10.07 6.03 9.16-15.25 10.07z" fill="#366FD9" p-id="2402"></path><path d="M292.68 715.4l-125.51 72.95L40.84 715.4l125.5-72.93 126.34 72.93z" fill="#A1C2F9" opacity=".8" p-id="2403"></path><path d="M292.68 715.4v145.89l-125.51 72.22V788.35l125.51-72.95z" fill="#A1C2F9" p-id="2404"></path><path d="M167.17 788.35v145.16L40.84 860.82l-0.01-145.41 126.34 72.94z" fill="#A1C2F9" opacity=".6" p-id="2405"></path><path d="M505.75 275.32l424.52 246.29-371.4 234.27-453.82-246.77 400.7-233.79m0-9.14a9.17 9.17 0 0 0-4.61 1.24l-400.7 233.79a9.15 9.15 0 0 0 0.24 15.93l453.83 246.78a9.13 9.13 0 0 0 9.24-0.3l371.4-234.28a9.15 9.15 0 0 0-0.29-15.64L510.34 267.41a9.19 9.19 0 0 0-4.59-1.23z" fill="#548FEF" opacity=".8" p-id="2406"></path><path d="M819.26 333.77L527.19 503.51 233.21 333.77l292.07-169.73 293.98 169.73zM731.675 584.659l5.924-9.215 15.355 9.871-5.923 9.215zM840.85 651l-31.16-19.89 5.89-9.25 31.16 19.89z m-46.75-29.85l-31.16-19.88 5.89-9.25L800 611.9zM871.83 670.76l-15.41-9.84 5.9-9.25 15.41 9.84-5.9 9.25zM699.234 603.233l5.891-9.254 15.43 9.822-5.891 9.254zM806.39 671.4L775.8 652l5.89-9.25 30.59 19.45z m-45.88-29.17l-30.57-19.46 5.89-9.25L766.41 633zM821.698 681.196l5.888-9.256 15.424 9.811-5.888 9.256z" fill="#366FD9" p-id="2407"></path><path d="M1015.88 652.75l-112.19 65.19-112.92-65.19 112.19-65.2 112.92 65.2z" fill="#A1C2F9" opacity=".8" p-id="2408"></path><path d="M1015.88 652.75v130.39L903.69 847.7l0.01-129.76 112.18-65.19z" fill="#A1C2F9" p-id="2409"></path><path d="M903.69 717.95V847.7l-112.92-64.98V652.75l112.92 65.2z" fill="#A1C2F9" opacity=".6" p-id="2410"></path></svg>